<svg width="373" height="35" viewBox="0 0 373 35" fill="none" xmlns="http://www.w3.org/2000/svg">
<path d="M209.726 12.1435C210.943 11.6768 212.09 11.4435 213.165 11.4435C213.754 11.4435 214.301 11.5348 214.809 11.7174C215.336 11.8797 215.783 12.1435 216.148 12.5087C217.02 11.7986 217.954 11.4435 218.948 11.4435C219.435 11.4435 219.891 11.5348 220.317 11.7174C220.764 11.9 221.149 12.1739 221.474 12.5391C221.819 12.9043 222.093 13.3609 222.296 13.9087C222.499 14.4565 222.6 15.0957 222.6 15.8261V25.8696H220.317V15.7652C220.317 15.0348 220.155 14.4768 219.83 14.0913C219.506 13.7058 219.1 13.513 218.613 13.513C218.37 13.513 218.116 13.5739 217.852 13.6957C217.588 13.8174 217.345 14.0101 217.122 14.2739C217.243 14.7406 217.304 15.258 217.304 15.8261V20.4217H215.022V15.7957C215.022 15.0855 214.91 14.5275 214.687 14.1217C214.464 13.7159 214.028 13.513 213.378 13.513C212.972 13.513 212.516 13.6043 212.009 13.787V25.8696H209.726V12.1435Z" fill="#FFF5E4"/>
<path d="M230.057 9.55652C229.529 9.55652 229.072 9.37391 228.687 9.0087C228.301 8.64348 228.109 8.14638 228.109 7.51739C228.109 6.88841 228.301 6.39131 228.687 6.02609C229.072 5.66087 229.529 5.47826 230.057 5.47826C230.604 5.47826 231.061 5.66087 231.426 6.02609C231.812 6.39131 232.004 6.88841 232.004 7.51739C232.004 8.14638 231.812 8.64348 231.426 9.0087C231.061 9.37391 230.604 9.55652 230.057 9.55652ZM229.417 13.8478H225.339V11.7478H231.913V20.4217C231.913 21.8217 232.106 22.7652 232.491 23.2522C232.877 23.7188 233.455 23.9522 234.226 23.9522C234.814 23.9522 235.352 23.8812 235.839 23.7391C236.346 23.5971 236.742 23.4449 237.026 23.2826L237.391 25.413C237.27 25.4739 237.097 25.5551 236.874 25.6565C236.651 25.7377 236.387 25.8188 236.083 25.9C235.799 25.9812 235.474 26.0522 235.109 26.113C234.764 26.1739 234.399 26.2043 234.013 26.2043C233.12 26.2043 232.38 26.0826 231.791 25.8391C231.203 25.5957 230.726 25.2304 230.361 24.7435C230.016 24.2565 229.772 23.658 229.63 22.9478C229.488 22.2174 229.417 21.3754 229.417 20.4217V13.8478Z" fill="#FFF5E4"/>
<path d="M249.443 24.5609C249.159 24.7232 248.723 24.8957 248.135 25.0783C247.546 25.2609 246.867 25.3522 246.096 25.3522C245.264 25.3522 244.483 25.2203 243.752 24.9565C243.042 24.6725 242.413 24.2565 241.865 23.7087C241.338 23.1406 240.912 22.4304 240.587 21.5783C240.283 20.7058 240.13 19.6812 240.13 18.5043C240.13 17.4696 240.272 16.5261 240.557 15.6739C240.861 14.8014 241.287 14.0507 241.835 13.4217C242.403 12.7928 243.093 12.3058 243.904 11.9609C244.716 11.5957 245.639 11.413 246.674 11.413C247.891 11.413 248.926 11.5043 249.778 11.687C250.651 11.8493 251.381 12.0116 251.97 12.1739V24.7739C251.97 26.9652 251.412 28.5478 250.296 29.5217C249.2 30.4957 247.536 30.9826 245.304 30.9826C244.391 30.9826 243.559 30.9116 242.809 30.7696C242.078 30.6275 241.429 30.4551 240.861 30.2522L241.317 28.0304C241.845 28.2536 242.443 28.4362 243.113 28.5783C243.803 28.7203 244.554 28.7913 245.365 28.7913C246.826 28.7913 247.871 28.4971 248.5 27.9087C249.129 27.3203 249.443 26.3667 249.443 25.0478V24.5609ZM249.443 13.9696C249.2 13.8884 248.865 13.8174 248.439 13.7565C248.013 13.6754 247.435 13.6348 246.704 13.6348C245.406 13.6348 244.412 14.0812 243.722 14.9739C243.052 15.8667 242.717 17.0536 242.717 18.5348C242.717 19.3464 242.809 20.0464 242.991 20.6348C243.194 21.2029 243.458 21.6797 243.783 22.0652C244.128 22.4304 244.513 22.7043 244.939 22.887C245.365 23.0493 245.822 23.1304 246.309 23.1304C246.938 23.1304 247.526 23.0391 248.074 22.8565C248.642 22.6739 249.099 22.4609 249.443 22.2174V13.9696Z" fill="#FFF5E4"/>
<path d="M267.187 25.4739C266.639 25.6159 265.909 25.7681 264.996 25.9304C264.103 26.0928 263.048 26.1739 261.83 26.1739C260.755 26.1739 259.862 26.0217 259.152 25.7174C258.442 25.3928 257.864 24.9464 257.417 24.3783C256.971 23.7899 256.657 23.1 256.474 22.3087C256.291 21.5174 256.2 20.6449 256.2 19.6913V11.7478H258.696V19.1435C258.696 20.8884 258.949 22.1261 259.457 22.8565C259.984 23.587 260.857 23.9522 262.074 23.9522C262.338 23.9522 262.601 23.942 262.865 23.9217C263.149 23.9015 263.413 23.8812 263.657 23.8609C263.9 23.8203 264.113 23.7899 264.296 23.7696C264.478 23.729 264.6 23.6986 264.661 23.6783V11.7478H267.187V25.4739Z" fill="#FFF5E4"/>
<path d="M277.23 11.413C279.138 11.413 280.609 12.0116 281.643 13.2087C282.678 14.3855 283.196 16.1812 283.196 18.5957V19.4783H273.091C273.193 20.9391 273.67 22.0551 274.522 22.8261C275.394 23.5768 276.612 23.9522 278.174 23.9522C279.067 23.9522 279.828 23.8812 280.457 23.7391C281.085 23.5971 281.562 23.4449 281.887 23.2826L282.222 25.413C281.917 25.5754 281.37 25.7478 280.578 25.9304C279.787 26.113 278.894 26.2043 277.9 26.2043C276.683 26.2043 275.607 26.0217 274.674 25.6565C273.761 25.271 273 24.7536 272.391 24.1043C271.783 23.4551 271.326 22.6841 271.022 21.7913C270.717 20.8783 270.565 19.8942 270.565 18.8391C270.565 17.5812 270.758 16.4855 271.143 15.5522C271.529 14.6188 272.036 13.8478 272.665 13.2391C273.294 12.6304 274.004 12.1739 274.796 11.8696C275.587 11.5652 276.399 11.413 277.23 11.413ZM280.639 17.4391C280.639 16.242 280.325 15.2986 279.696 14.6087C279.067 13.8986 278.235 13.5435 277.2 13.5435C276.612 13.5435 276.074 13.6551 275.587 13.8783C275.12 14.1014 274.714 14.3957 274.37 14.7609C274.025 15.1261 273.751 15.542 273.548 16.0087C273.345 16.4754 273.213 16.9522 273.152 17.4391H280.639Z" fill="#FFF5E4"/>
<path d="M294.852 26.2043C293.959 26.2043 293.219 26.0826 292.63 25.8391C292.042 25.5957 291.575 25.2304 291.23 24.7435C290.885 24.2565 290.642 23.658 290.5 22.9478C290.358 22.2174 290.287 21.3754 290.287 20.4217V7.06087H286.209V4.93044H292.783V20.4217C292.783 21.1319 292.823 21.7101 292.904 22.1565C293.006 22.6029 293.148 22.9681 293.33 23.2522C293.533 23.5159 293.777 23.6986 294.061 23.8C294.345 23.9015 294.68 23.9522 295.065 23.9522C295.654 23.9522 296.201 23.8812 296.709 23.7391C297.216 23.5971 297.612 23.4449 297.896 23.2826L298.261 25.413C298.139 25.4739 297.967 25.5551 297.743 25.6565C297.52 25.7377 297.257 25.8188 296.952 25.9C296.648 25.9812 296.313 26.0522 295.948 26.113C295.603 26.1739 295.238 26.2043 294.852 26.2043Z" fill="#FFF5E4"/>
<path d="M309.643 23.9217C309.643 24.5304 309.441 25.0681 309.035 25.5348C308.629 26.0015 308.091 26.2348 307.422 26.2348C306.732 26.2348 306.184 26.0015 305.778 25.5348C305.372 25.0681 305.17 24.5304 305.17 23.9217C305.17 23.2928 305.372 22.7449 305.778 22.2783C306.184 21.8116 306.732 21.5783 307.422 21.5783C308.091 21.5783 308.629 21.8116 309.035 22.2783C309.441 22.7449 309.643 23.2928 309.643 23.9217Z" fill="#FFF5E4"/>
<path d="M321.361 9.55652C320.833 9.55652 320.377 9.37391 319.991 9.0087C319.606 8.64348 319.413 8.14638 319.413 7.51739C319.413 6.88841 319.606 6.39131 319.991 6.02609C320.377 5.66087 320.833 5.47826 321.361 5.47826C321.909 5.47826 322.365 5.66087 322.73 6.02609C323.116 6.39131 323.309 6.88841 323.309 7.51739C323.309 8.14638 323.116 8.64348 322.73 9.0087C322.365 9.37391 321.909 9.55652 321.361 9.55652ZM320.722 13.8478H316.643V11.7478H323.217V20.4217C323.217 21.8217 323.41 22.7652 323.796 23.2522C324.181 23.7188 324.759 23.9522 325.53 23.9522C326.119 23.9522 326.657 23.8812 327.143 23.7391C327.651 23.5971 328.046 23.4449 328.33 23.2826L328.696 25.413C328.574 25.4739 328.401 25.5551 328.178 25.6565C327.955 25.7377 327.691 25.8188 327.387 25.9C327.103 25.9812 326.778 26.0522 326.413 26.113C326.068 26.1739 325.703 26.2043 325.317 26.2043C324.425 26.2043 323.684 26.0826 323.096 25.8391C322.507 25.5957 322.03 25.2304 321.665 24.7435C321.32 24.2565 321.077 23.658 320.935 22.9478C320.793 22.2174 320.722 21.3754 320.722 20.4217V13.8478Z" fill="#FFF5E4"/>
<path d="M344.217 18.8087C344.217 19.9246 344.055 20.9391 343.73 21.8522C343.426 22.7449 342.99 23.5159 342.422 24.1652C341.854 24.8145 341.174 25.3217 340.383 25.687C339.591 26.0319 338.729 26.2043 337.796 26.2043C336.883 26.2043 336.03 26.0319 335.239 25.687C334.468 25.3217 333.799 24.8145 333.23 24.1652C332.662 23.5159 332.216 22.7449 331.891 21.8522C331.587 20.9391 331.435 19.9246 331.435 18.8087C331.435 17.6928 331.587 16.6783 331.891 15.7652C332.216 14.8522 332.662 14.0812 333.23 13.4522C333.799 12.8029 334.468 12.3058 335.239 11.9609C336.03 11.5957 336.883 11.413 337.796 11.413C338.729 11.413 339.591 11.5957 340.383 11.9609C341.174 12.3058 341.854 12.8029 342.422 13.4522C342.99 14.0812 343.426 14.8522 343.73 15.7652C344.055 16.6783 344.217 17.6928 344.217 18.8087ZM341.63 18.8087C341.63 17.2058 341.285 15.9478 340.596 15.0348C339.906 14.1014 338.972 13.6348 337.796 13.6348C336.639 13.6348 335.716 14.1014 335.026 15.0348C334.357 15.9478 334.022 17.2058 334.022 18.8087C334.022 20.3913 334.357 21.6493 335.026 22.5826C335.716 23.4957 336.639 23.9522 337.796 23.9522C338.972 23.9522 339.906 23.4957 340.596 22.5826C341.285 21.6493 341.63 20.3913 341.63 18.8087Z" fill="#FFF5E4"/>
<path d="M13.8478 24.0739C14.4768 24.0739 15.0348 24.0536 15.5217 24.0131C16.029 23.9725 16.4449 23.9218 16.7696 23.8609V19.6609C16.4449 19.5594 16.0493 19.4783 15.5826 19.4174C15.1362 19.3565 14.6594 19.3261 14.1522 19.3261C13.6855 19.3261 13.229 19.3667 12.7826 19.4478C12.3362 19.5087 11.9406 19.6304 11.5957 19.8131C11.2507 19.9957 10.9667 20.2391 10.7435 20.5435C10.5203 20.8275 10.4087 21.1928 10.4087 21.6391C10.4087 22.5522 10.713 23.1913 11.3217 23.5565C11.9507 23.9015 12.7928 24.0739 13.8478 24.0739ZM13.6043 11.4131C14.6594 11.4131 15.542 11.5449 16.2522 11.8087C16.9826 12.0725 17.571 12.4377 18.0174 12.9044C18.4638 13.371 18.7783 13.9391 18.9609 14.6087C19.1435 15.2783 19.2348 16.0087 19.2348 16.8V25.6261C18.6464 25.7276 17.8652 25.8493 16.8913 25.9913C15.9377 26.1333 14.9536 26.2044 13.9391 26.2044C13.1681 26.2044 12.4174 26.1333 11.687 25.9913C10.9565 25.8696 10.3072 25.6464 9.73913 25.3218C9.17101 24.9768 8.71449 24.5102 8.36956 23.9218C8.02464 23.3333 7.85217 22.5826 7.85217 21.6696C7.85217 20.858 8.02464 20.1783 8.36956 19.6304C8.73478 19.0623 9.1913 18.6058 9.73913 18.2609C10.3072 17.916 10.9464 17.6725 11.6565 17.5304C12.387 17.3681 13.1174 17.287 13.8478 17.287C14.842 17.287 15.8159 17.3986 16.7696 17.6218V16.9218C16.7696 16.4957 16.7188 16.0899 16.6174 15.7044C16.5362 15.2986 16.3638 14.9333 16.1 14.6087C15.8565 14.2841 15.5116 14.0304 15.0652 13.8478C14.6391 13.6449 14.0812 13.5435 13.3913 13.5435C12.5188 13.5435 11.758 13.6044 11.1087 13.7261C10.4594 13.8478 9.96232 13.9696 9.61739 14.0913L9.31304 12.0218C9.65797 11.8594 10.2261 11.7174 11.0174 11.5957C11.829 11.4739 12.6913 11.4131 13.6043 11.4131Z" fill="#FFF5E4"/>
<path d="M28.7 11.7478H34.6652V13.8478H28.7V20.4218C28.7 21.1319 28.7507 21.7102 28.8522 22.1565C28.9536 22.6029 29.1159 22.9681 29.3391 23.2522C29.5826 23.516 29.887 23.6986 30.2522 23.8C30.6174 23.9015 31.0638 23.9522 31.5913 23.9522C32.3217 23.9522 32.9101 23.8913 33.3565 23.7696C33.8029 23.6478 34.229 23.4855 34.6348 23.2826L35 25.4131C34.7159 25.5348 34.2594 25.6971 33.6304 25.9C33.0217 26.1029 32.2609 26.2044 31.3478 26.2044C30.2928 26.2044 29.4304 26.0826 28.7609 25.8391C28.0913 25.5957 27.5638 25.2304 27.1783 24.7435C26.813 24.2565 26.5594 23.658 26.4174 22.9478C26.2754 22.2174 26.2043 21.3754 26.2043 20.4218V13.8478H23.2217V11.7478H26.2043V7.79132L28.7 7.36523V11.7478Z" fill="#FFF5E4"/>
<path d="M44.4043 11.4131C46.3116 11.4131 47.7826 12.0116 48.8174 13.2087C49.8522 14.3855 50.3696 16.1812 50.3696 18.5957V19.4783H40.2652C40.3667 20.9391 40.8435 22.0551 41.6957 22.8261C42.5681 23.5768 43.7855 23.9522 45.3478 23.9522C46.2406 23.9522 47.0014 23.8812 47.6304 23.7391C48.2594 23.5971 48.7362 23.4449 49.0609 23.2826L49.3956 25.4131C49.0913 25.5754 48.5435 25.7478 47.7522 25.9304C46.9609 26.1131 46.0681 26.2044 45.0739 26.2044C43.8565 26.2044 42.7812 26.0218 41.8478 25.6565C40.9348 25.271 40.1739 24.7536 39.5652 24.1044C38.9565 23.4551 38.5 22.6841 38.1957 21.7913C37.8913 20.8783 37.7391 19.8942 37.7391 18.8391C37.7391 17.5812 37.9319 16.4855 38.3174 15.5522C38.7029 14.6189 39.2101 13.8478 39.8391 13.2391C40.4681 12.6304 41.1783 12.1739 41.9696 11.8696C42.7609 11.5652 43.5725 11.4131 44.4043 11.4131ZM47.813 17.4391C47.813 16.242 47.4986 15.2986 46.8696 14.6087C46.2406 13.8986 45.4087 13.5435 44.3739 13.5435C43.7855 13.5435 43.2478 13.6551 42.7609 13.8783C42.2942 14.1015 41.8884 14.3957 41.5435 14.7609C41.1985 15.1261 40.9246 15.542 40.7217 16.0087C40.5188 16.4754 40.387 16.9522 40.3261 17.4391H47.813Z" fill="#FFF5E4"/>
<path d="M53.9 12.1435C54.813 11.9203 55.7159 11.7478 56.6087 11.6261C57.5217 11.5044 58.3739 11.4435 59.1652 11.4435C61.0522 11.4435 62.4725 11.9304 63.4261 12.9044C64.4 13.8783 64.887 15.4406 64.887 17.5913V25.8696H62.3913V18.0478C62.3913 17.1348 62.3101 16.3942 62.1478 15.8261C61.9855 15.258 61.7522 14.8218 61.4478 14.5174C61.1638 14.1928 60.8087 13.9696 60.3826 13.8478C59.9768 13.7261 59.5304 13.6652 59.0435 13.6652C58.6377 13.6652 58.2014 13.6957 57.7348 13.7565C57.2884 13.7971 56.8522 13.858 56.4261 13.9391V25.8696H53.9V12.1435Z" fill="#FFF5E4"/>
<path d="M68.4478 18.8391C68.4478 17.5609 68.6507 16.4551 69.0565 15.5218C69.4623 14.5884 70.0203 13.8174 70.7304 13.2087C71.4406 12.6 72.2623 12.1536 73.1956 11.8696C74.1493 11.5652 75.1638 11.4131 76.2391 11.4131C76.929 11.4131 77.6087 11.4638 78.2783 11.5652C78.9681 11.6464 79.6985 11.8087 80.4696 12.0522L79.8913 14.2131C79.2217 13.9696 78.6029 13.8174 78.0348 13.7565C77.487 13.6754 76.929 13.6348 76.3609 13.6348C75.6304 13.6348 74.9406 13.7362 74.2913 13.9391C73.642 14.1218 73.0739 14.4261 72.587 14.8522C72.1203 15.258 71.7449 15.7957 71.4609 16.4652C71.1768 17.1145 71.0348 17.9058 71.0348 18.8391C71.0348 19.7319 71.1667 20.5029 71.4304 21.1522C71.6942 21.7812 72.0594 22.3087 72.5261 22.7348C73.013 23.1406 73.5913 23.4449 74.2609 23.6478C74.9304 23.8507 75.671 23.9522 76.4826 23.9522C77.1319 23.9522 77.7507 23.9218 78.3391 23.8609C78.9478 23.7797 79.6072 23.6174 80.3174 23.3739L80.6826 25.4739C79.9725 25.7377 79.2522 25.9203 78.5217 26.0218C77.7913 26.1435 77 26.2044 76.1478 26.2044C75.0116 26.2044 73.9667 26.0522 73.013 25.7478C72.0797 25.4232 71.2681 24.9565 70.5783 24.3478C69.9087 23.7391 69.3812 22.9783 68.9957 22.0652C68.6304 21.1319 68.4478 20.0565 68.4478 18.8391Z" fill="#FFF5E4"/>
<path d="M88.5348 9.55654C88.0072 9.55654 87.5507 9.37393 87.1652 9.00871C86.7797 8.64349 86.587 8.14639 86.587 7.5174C86.587 6.88842 86.7797 6.39132 87.1652 6.0261C87.5507 5.66088 88.0072 5.47828 88.5348 5.47828C89.0826 5.47828 89.5391 5.66088 89.9044 6.0261C90.2899 6.39132 90.4826 6.88842 90.4826 7.5174C90.4826 8.14639 90.2899 8.64349 89.9044 9.00871C89.5391 9.37393 89.0826 9.55654 88.5348 9.55654ZM87.8956 13.8478H83.8174V11.7478H90.3913V20.4218C90.3913 21.8218 90.5841 22.7652 90.9696 23.2522C91.3551 23.7189 91.9333 23.9522 92.7044 23.9522C93.2928 23.9522 93.8304 23.8812 94.3174 23.7391C94.8246 23.5971 95.2203 23.4449 95.5043 23.2826L95.8696 25.4131C95.7478 25.4739 95.5754 25.5551 95.3522 25.6565C95.129 25.7377 94.8652 25.8189 94.5609 25.9C94.2768 25.9812 93.9522 26.0522 93.587 26.1131C93.242 26.1739 92.8768 26.2044 92.4913 26.2044C91.5985 26.2044 90.858 26.0826 90.2696 25.8391C89.6812 25.5957 89.2043 25.2304 88.8391 24.7435C88.4942 24.2565 88.2507 23.658 88.1087 22.9478C87.9667 22.2174 87.8956 21.3754 87.8956 20.4218V13.8478Z" fill="#FFF5E4"/>
<path d="M111.391 18.8087C111.391 19.9247 111.229 20.9391 110.904 21.8522C110.6 22.7449 110.164 23.516 109.596 24.1652C109.028 24.8145 108.348 25.3218 107.557 25.687C106.765 26.0319 105.903 26.2044 104.97 26.2044C104.057 26.2044 103.204 26.0319 102.413 25.687C101.642 25.3218 100.972 24.8145 100.404 24.1652C99.8362 23.516 99.3899 22.7449 99.0652 21.8522C98.7609 20.9391 98.6087 19.9247 98.6087 18.8087C98.6087 17.6928 98.7609 16.6783 99.0652 15.7652C99.3899 14.8522 99.8362 14.0812 100.404 13.4522C100.972 12.8029 101.642 12.3058 102.413 11.9609C103.204 11.5957 104.057 11.4131 104.97 11.4131C105.903 11.4131 106.765 11.5957 107.557 11.9609C108.348 12.3058 109.028 12.8029 109.596 13.4522C110.164 14.0812 110.6 14.8522 110.904 15.7652C111.229 16.6783 111.391 17.6928 111.391 18.8087ZM108.804 18.8087C108.804 17.2058 108.459 15.9478 107.77 15.0348C107.08 14.1015 106.146 13.6348 104.97 13.6348C103.813 13.6348 102.89 14.1015 102.2 15.0348C101.53 15.9478 101.196 17.2058 101.196 18.8087C101.196 20.3913 101.53 21.6493 102.2 22.5826C102.89 23.4957 103.813 23.9522 104.97 23.9522C106.146 23.9522 107.08 23.4957 107.77 22.5826C108.459 21.6493 108.804 20.3913 108.804 18.8087Z" fill="#FFF5E4"/>
<path fill-rule="evenodd" clip-rule="evenodd" d="M117.041 35L134.117 17.5L117.041 0H183.793L200.87 17.5L183.793 35H117.041ZM150.53 19.0217C150.53 18.4055 150.66 17.7349 150.94 17.2692C151.168 16.8893 151.494 16.6174 152.174 16.6174C152.384 16.6174 152.697 16.7119 153.191 17.0671C153.65 17.3979 154.115 17.8391 154.681 18.3765L154.828 18.5159C155.423 19.0799 156.125 19.7356 156.904 20.2424C157.695 20.7576 158.657 21.1826 159.783 21.1826C161.396 21.1826 162.721 20.7113 163.499 19.4874C164.166 18.4372 164.226 17.093 164.226 15.9783H161.426C161.426 17.1461 161.315 17.7041 161.136 17.9854C161.068 18.093 160.871 18.3826 159.783 18.3826C159.386 18.3826 158.955 18.2369 158.432 17.8961C157.895 17.547 157.363 17.0614 156.754 16.4841L156.587 16.3255C156.056 15.8198 155.45 15.2436 154.826 14.7943C154.13 14.2935 153.236 13.8174 152.174 13.8174C150.419 13.8174 149.224 14.6868 148.539 15.8286C147.905 16.8847 147.73 18.1162 147.73 19.0217H150.53Z" fill="#21FFD7"/>
</svg>
