<svg width="190" height="126" viewBox="0 0 190 126" fill="none" xmlns="http://www.w3.org/2000/svg">
<rect x="18" y="3" width="111" height="107" fill="#21FFD6"/>
<rect x="18" y="3" width="111" height="107" fill="#21FFD6"/>
<rect x="132" y="3" width="53" height="107" fill="#FFC708"/>
<rect x="18.5" y="3.5" width="168" height="105" stroke="#FFF5E4" stroke-width="5"/>
<path d="M18 2.5L3 20V123M3 123L19 108.5M3 123H172L187.5 109.5" stroke="#FFF5E4" stroke-width="5"/>
<line x1="130.5" y1="4" x2="130.5" y2="108" stroke="#FFF5E4" stroke-width="5"/>
<g filter="url(#filter0_d)">
<path d="M49.743 55.622C49.743 56.924 49.9807 57.9883 50.456 58.815C50.952 59.6417 51.7373 60.055 52.812 60.055C53.122 60.055 53.4113 60.0447 53.68 60.024C53.9487 60.0033 54.2277 59.9723 54.517 59.931V51.995C54.2277 51.8297 53.897 51.6953 53.525 51.592C53.153 51.468 52.7603 51.406 52.347 51.406C51.4377 51.406 50.7763 51.7677 50.363 52.491C49.9497 53.2143 49.743 54.258 49.743 55.622ZM58.33 62.566C57.6273 62.7933 56.7697 62.9793 55.757 63.124C54.7443 63.2687 53.7523 63.341 52.781 63.341C50.5077 63.341 48.782 62.6693 47.604 61.326C46.4467 59.9827 45.868 58.1433 45.868 55.808C45.868 53.4313 46.3537 51.561 47.325 50.197C48.317 48.8123 49.774 48.12 51.696 48.12C52.2127 48.12 52.719 48.182 53.215 48.306C53.711 48.4093 54.145 48.5643 54.517 48.771V42.137L58.33 41.486V62.566ZM68.281 60.272C68.6943 60.272 69.0973 60.272 69.49 60.272C69.8827 60.2513 70.2237 60.2203 70.513 60.179V56.831C70.265 56.7897 69.9653 56.7587 69.614 56.738C69.2627 56.6967 68.9423 56.676 68.653 56.676C68.2603 56.676 67.878 56.707 67.506 56.769C67.134 56.8103 66.8033 56.893 66.514 57.017C66.2453 57.141 66.0283 57.3167 65.863 57.544C65.6977 57.7713 65.615 58.071 65.615 58.443C65.615 59.1043 65.863 59.5797 66.359 59.869C66.855 60.1377 67.4957 60.272 68.281 60.272ZM67.94 48.058C69.1387 48.058 70.1307 48.2027 70.916 48.492C71.722 48.7607 72.3627 49.1533 72.838 49.67C73.3133 50.166 73.6543 50.786 73.861 51.53C74.0677 52.2533 74.171 53.0697 74.171 53.979V62.659C73.613 62.783 72.7863 62.9277 71.691 63.093C70.5957 63.2583 69.366 63.341 68.002 63.341C67.072 63.341 66.2247 63.2583 65.46 63.093C64.716 62.9277 64.0753 62.659 63.538 62.287C63.0007 61.8943 62.5873 61.3983 62.298 60.799C62.0087 60.179 61.864 59.4247 61.864 58.536C61.864 57.6887 62.0293 56.9757 62.36 56.397C62.6907 55.8183 63.135 55.3533 63.693 55.002C64.251 54.6507 64.8917 54.4027 65.615 54.258C66.3383 54.0927 67.0927 54.01 67.878 54.01C68.87 54.01 69.7483 54.0927 70.513 54.258V53.793C70.513 53.0697 70.2857 52.4703 69.831 51.995C69.3763 51.499 68.591 51.251 67.475 51.251C66.7517 51.251 66.049 51.3027 65.367 51.406C64.7057 51.5093 64.1683 51.6333 63.755 51.778L63.228 48.709C63.7033 48.5437 64.375 48.399 65.243 48.275C66.111 48.1303 67.01 48.058 67.94 48.058ZM80.433 51.592H77.116V48.43H80.433V44.772L84.246 44.152V48.43H90.353V51.592H84.246V57.482C84.246 58.0193 84.2977 58.4533 84.401 58.784C84.5043 59.1147 84.649 59.373 84.835 59.559C85.021 59.745 85.2483 59.869 85.517 59.931C85.7857 59.993 86.0853 60.024 86.416 60.024C86.7673 60.024 87.0877 60.0137 87.377 59.993C87.687 59.9723 87.9763 59.9413 88.245 59.9C88.5343 59.838 88.8237 59.7553 89.113 59.652C89.423 59.5487 89.7537 59.4143 90.105 59.249L90.632 62.535C89.9293 62.8243 89.1647 63.031 88.338 63.155C87.532 63.279 86.7467 63.341 85.982 63.341C85.0933 63.341 84.308 63.2687 83.626 63.124C82.944 62.9793 82.3653 62.7003 81.89 62.287C81.4147 61.8737 81.053 61.295 80.805 60.551C80.557 59.7863 80.433 58.7943 80.433 57.575V51.592ZM99.281 60.272C99.6943 60.272 100.097 60.272 100.49 60.272C100.883 60.2513 101.224 60.2203 101.513 60.179V56.831C101.265 56.7897 100.965 56.7587 100.614 56.738C100.263 56.6967 99.9423 56.676 99.653 56.676C99.2603 56.676 98.878 56.707 98.506 56.769C98.134 56.8103 97.8033 56.893 97.514 57.017C97.2453 57.141 97.0283 57.3167 96.863 57.544C96.6977 57.7713 96.615 58.071 96.615 58.443C96.615 59.1043 96.863 59.5797 97.359 59.869C97.855 60.1377 98.4957 60.272 99.281 60.272ZM98.94 48.058C100.139 48.058 101.131 48.2027 101.916 48.492C102.722 48.7607 103.363 49.1533 103.838 49.67C104.313 50.166 104.654 50.786 104.861 51.53C105.068 52.2533 105.171 53.0697 105.171 53.979V62.659C104.613 62.783 103.786 62.9277 102.691 63.093C101.596 63.2583 100.366 63.341 99.002 63.341C98.072 63.341 97.2247 63.2583 96.46 63.093C95.716 62.9277 95.0753 62.659 94.538 62.287C94.0007 61.8943 93.5873 61.3983 93.298 60.799C93.0087 60.179 92.864 59.4247 92.864 58.536C92.864 57.6887 93.0293 56.9757 93.36 56.397C93.6907 55.8183 94.135 55.3533 94.693 55.002C95.251 54.6507 95.8917 54.4027 96.615 54.258C97.3383 54.0927 98.0927 54.01 98.878 54.01C99.87 54.01 100.748 54.0927 101.513 54.258V53.793C101.513 53.0697 101.286 52.4703 100.831 51.995C100.376 51.499 99.591 51.251 98.475 51.251C97.7517 51.251 97.049 51.3027 96.367 51.406C95.7057 51.5093 95.1683 51.6333 94.755 51.778L94.228 48.709C94.7033 48.5437 95.375 48.399 96.243 48.275C97.111 48.1303 98.01 48.058 98.94 48.058Z" fill="#FFF5E4"/>
</g>
<g filter="url(#filter1_d)">
<path d="M158.549 74.952C159.086 74.952 159.551 75.1173 159.944 75.448C160.337 75.758 160.533 76.1713 160.533 76.688C160.533 77.2253 160.337 77.6593 159.944 77.99C159.551 78.3207 159.086 78.486 158.549 78.486C158.012 78.486 157.536 78.3207 157.123 77.99C156.71 77.6593 156.503 77.2253 156.503 76.688C156.503 76.1713 156.71 75.758 157.123 75.448C157.536 75.1173 158.012 74.952 158.549 74.952ZM158.89 83.074C155.666 83.074 153.196 82.5263 151.481 81.431C149.745 80.315 148.877 78.7547 148.877 76.75C148.877 74.7247 149.745 73.1643 151.481 72.069C153.196 70.9737 155.666 70.426 158.89 70.426C162.114 70.426 164.594 70.9737 166.33 72.069C168.045 73.1643 168.903 74.7247 168.903 76.75C168.903 78.7547 168.045 80.315 166.33 81.431C164.594 82.5263 162.114 83.074 158.89 83.074ZM158.89 73.03C157.836 73.03 156.844 73.092 155.914 73.216C154.963 73.34 154.137 73.5467 153.434 73.836C152.731 74.1253 152.173 74.5077 151.76 74.983C151.347 75.4583 151.14 76.0473 151.14 76.75C151.14 77.4527 151.347 78.0417 151.76 78.517C152.173 78.9923 152.731 79.3747 153.434 79.664C154.137 79.9533 154.963 80.16 155.914 80.284C156.844 80.408 157.836 80.47 158.89 80.47C159.944 80.47 160.946 80.408 161.897 80.284C162.827 80.16 163.643 79.9533 164.346 79.664C165.049 79.3747 165.607 78.9923 166.02 78.517C166.433 78.0417 166.64 77.4527 166.64 76.75C166.64 76.0473 166.433 75.4583 166.02 74.983C165.607 74.5077 165.049 74.1253 164.346 73.836C163.643 73.5467 162.827 73.34 161.897 73.216C160.946 73.092 159.944 73.03 158.89 73.03ZM168.5 57.22C168.087 57.4267 167.632 57.685 167.136 57.995C166.64 58.2843 166.134 58.6047 165.617 58.956C165.08 59.3073 164.553 59.6793 164.036 60.072C163.519 60.444 163.034 60.816 162.579 61.188C163.054 61.56 163.55 61.9527 164.067 62.366C164.584 62.7793 165.111 63.1823 165.648 63.575C166.165 63.947 166.671 64.2983 167.167 64.629C167.663 64.9597 168.107 65.2387 168.5 65.466L168.5 68.101C167.26 67.419 165.989 66.5923 164.687 65.621C163.364 64.629 162.114 63.6577 160.936 62.707L154.116 67.884L154.116 65.001L159.138 61.126L154.116 57.561L154.116 54.833L160.781 59.576C162 58.646 163.271 57.716 164.594 56.786C165.917 55.8353 167.219 55.0293 168.5 54.368L168.5 57.22ZM168.5 48.509L156.255 48.509L156.255 51.547L154.116 51.547L154.116 48.509L152.814 48.509C151.698 48.509 150.778 48.354 150.055 48.044C149.311 47.734 148.712 47.331 148.257 46.835C147.802 46.3183 147.482 45.7293 147.296 45.068C147.11 44.386 147.017 43.673 147.017 42.929C147.017 42.185 147.1 41.441 147.265 40.697C147.43 39.9323 147.627 39.2193 147.854 38.558L150.055 39.023C149.828 39.4777 149.631 40.046 149.466 40.728C149.301 41.41 149.218 42.1023 149.218 42.805C149.218 43.239 149.28 43.6523 149.404 44.045C149.507 44.417 149.704 44.7477 149.993 45.037C150.262 45.3263 150.634 45.5537 151.109 45.719C151.564 45.8843 152.142 45.967 152.845 45.967L154.116 45.967L154.116 40.17L156.255 40.17L156.255 45.967L168.5 45.967L168.5 48.509ZM168.5 33.009L156.255 33.009L156.255 36.047L154.116 36.047L154.116 33.009L152.814 33.009C151.698 33.009 150.778 32.854 150.055 32.544C149.311 32.234 148.712 31.831 148.257 31.335C147.802 30.8183 147.482 30.2293 147.296 29.568C147.11 28.886 147.017 28.173 147.017 27.429C147.017 26.685 147.1 25.941 147.265 25.197C147.43 24.4323 147.627 23.7193 147.854 23.058L150.055 23.523C149.828 23.9777 149.631 24.546 149.466 25.228C149.301 25.91 149.218 26.6023 149.218 27.305C149.218 27.739 149.28 28.1523 149.404 28.545C149.507 28.917 149.704 29.2477 149.993 29.537C150.262 29.8263 150.634 30.0537 151.109 30.219C151.564 30.3843 152.142 30.467 152.845 30.467L154.116 30.467L154.116 24.67L156.255 24.67L156.255 30.467L168.5 30.467L168.5 33.009Z" fill="#FFF5E4"/>
</g>
<defs>
<filter id="filter0_d" x="41.8679" y="40.486" width="67.303" height="29.855" filterUnits="userSpaceOnUse" color-interpolation-filters="sRGB">
<feFlood flood-opacity="0" result="BackgroundImageFix"/>
<feColorMatrix in="SourceAlpha" type="matrix" values="0 0 0 0 0 0 0 0 0 0 0 0 0 0 0 0 0 0 127 0"/>
<feOffset dy="3"/>
<feGaussianBlur stdDeviation="2"/>
<feColorMatrix type="matrix" values="0 0 0 0 0 0 0 0 0 0 0 0 0 0 0 0 0 0 0.25 0"/>
<feBlend mode="normal" in2="BackgroundImageFix" result="effect1_dropShadow"/>
<feBlend mode="normal" in="SourceGraphic" in2="effect1_dropShadow" result="shape"/>
</filter>
<filter id="filter1_d" x="143.017" y="23.058" width="29.886" height="68.016" filterUnits="userSpaceOnUse" color-interpolation-filters="sRGB">
<feFlood flood-opacity="0" result="BackgroundImageFix"/>
<feColorMatrix in="SourceAlpha" type="matrix" values="0 0 0 0 0 0 0 0 0 0 0 0 0 0 0 0 0 0 127 0"/>
<feOffset dy="4"/>
<feGaussianBlur stdDeviation="2"/>
<feColorMatrix type="matrix" values="0 0 0 0 0 0 0 0 0 0 0 0 0 0 0 0 0 0 0.25 0"/>
<feBlend mode="normal" in2="BackgroundImageFix" result="effect1_dropShadow"/>
<feBlend mode="normal" in="SourceGraphic" in2="effect1_dropShadow" result="shape"/>
</filter>
</defs>
</svg>
