<svg width="505" height="505" viewBox="0 0 505 505" fill="none" xmlns="http://www.w3.org/2000/svg">
<g clip-path="url(#clip0)">
<path d="M252.062 504.124C391.272 504.124 504.124 391.272 504.124 252.062C504.124 112.852 391.272 0 252.062 0C112.852 0 0 112.852 0 252.062C0 391.272 112.852 504.124 252.062 504.124Z" fill="#FFC708"/>
<path d="M356.825 195.348H341.071V211.102H356.825V195.348Z" fill="#183651"/>
<path d="M404.874 195.348H389.12V211.102H404.874V195.348Z" fill="#183651"/>
<path d="M452.136 195.348H436.382V211.102H452.136V195.348Z" fill="#183651"/>
<path d="M67.7418 293.022H51.9878V308.776H67.7418V293.022Z" fill="#183651"/>
<path d="M115.003 293.022H99.249V308.776H115.003V293.022Z" fill="#183651"/>
<path d="M163.052 293.022H147.298V308.776H163.052V293.022Z" fill="#183651"/>
<path d="M146.511 65.378L135.483 54.351L149.662 39.385L135.483 24.418L146.511 13.391L172.505 39.385L146.511 65.378Z" fill="#183651"/>
<path d="M160.689 31.508H111.852V47.262H160.689V31.508Z" fill="#183651"/>
<path d="M304.049 432.443H200.074V496.246H304.049V432.443Z" fill="#21FFD6"/>
<path d="M304.049 504.123H200.074C195.348 504.123 192.197 500.972 192.197 496.246V432.443C192.197 427.717 195.348 424.566 200.074 424.566H304.049C308.775 424.566 311.926 427.717 311.926 432.443V496.246C311.926 500.972 308.775 504.123 304.049 504.123ZM207.951 488.369H296.173V440.32H207.951V488.369V488.369Z" fill="#183651"/>
<path d="M304.049 326.105H200.074V389.908H304.049V326.105Z" fill="#E0E4E8"/>
<path d="M304.049 397.785H200.074C195.348 397.785 192.197 394.634 192.197 389.908V326.105C192.197 321.379 195.348 318.228 200.074 318.228H304.049C308.775 318.228 311.926 321.379 311.926 326.105V389.908C311.926 394.634 308.775 397.785 304.049 397.785ZM207.951 382.031H296.173V333.982H207.951V382.031V382.031Z" fill="#183651"/>
<path d="M304.049 220.554H200.074V284.357H304.049V220.554Z" fill="#4FBF9F"/>
<path d="M304.049 291.446H200.074C195.348 291.446 192.197 288.295 192.197 283.569V219.766C192.197 215.04 195.348 211.889 200.074 211.889H304.049C308.775 211.889 311.926 215.04 311.926 219.766V283.569C311.926 288.295 308.775 291.446 304.049 291.446ZM207.951 275.692H296.173V227.643H207.951V275.692V275.692Z" fill="#183651"/>
<path d="M304.049 114.215H200.074V178.018H304.049V114.215Z" fill="#E0E4E8"/>
<path d="M304.049 185.895H200.074C195.348 185.895 192.197 182.744 192.197 178.018V114.215C192.197 109.489 195.348 106.338 200.074 106.338H304.049C308.775 106.338 311.926 109.489 311.926 114.215V178.018C311.926 181.957 308.775 185.895 304.049 185.895ZM207.951 170.142H296.173V122.093H207.951V170.142V170.142Z" fill="#183651"/>
<path d="M304.049 7.87701H200.074V71.68H304.049V7.87701Z" fill="#21FFD6"/>
<path d="M304.049 79.557H200.074C195.348 79.557 192.197 76.406 192.197 71.68V7.877C192.197 3.151 195.348 0 200.074 0H304.049C308.775 0 311.926 3.151 311.926 7.877V71.68C311.926 75.618 308.775 79.557 304.049 79.557ZM207.951 63.803H296.173V15.754H207.951V63.803V63.803Z" fill="#183651"/>
<path d="M338.708 487.582L327.68 476.554L341.858 462.375L327.68 447.409L338.708 436.382L363.914 462.375L338.708 487.582Z" fill="#183651"/>
<path d="M352.886 454.498H304.049V470.252H352.886V454.498Z" fill="#183651"/>
<path d="M152.812 484.431L140.997 473.403L155.963 458.437L140.997 443.471L152.812 432.443L178.018 458.437L152.812 484.431Z" fill="#183651"/>
<path d="M166.203 466.314H63.8032C31.5082 466.314 5.51416 440.32 5.51416 408.025C5.51416 375.73 32.2962 350.523 64.5912 350.523H200.074V366.277H64.5912C40.9602 366.277 22.0562 385.182 22.0562 408.812C22.0562 432.442 40.9612 451.347 64.5912 451.347H166.991V466.313H166.203V466.314Z" fill="#183651"/>
<path d="M152.812 271.754L140.997 260.726L155.963 246.548L140.997 231.582L152.812 220.554L178.018 246.548L152.812 271.754Z" fill="#183651"/>
<path d="M166.203 254.425H63.8032C31.5082 254.425 5.51416 228.431 5.51416 196.136C5.51416 163.841 32.2962 137.847 64.5912 137.847H200.074V153.6H64.5912C40.9602 153.6 22.0562 172.505 22.0562 196.135C22.0562 219.765 40.9612 238.67 64.5912 238.67H166.991V254.424H166.203V254.425Z" fill="#183651"/>
<path d="M351.311 382.031L326.105 356.037L351.311 330.831L363.126 341.858L348.16 356.037L363.126 371.003L351.311 382.031Z" fill="#183651"/>
<path d="M439.532 363.914H337.132V348.16H439.532C463.163 348.16 482.067 329.255 482.067 305.625V301.687C482.067 278.056 463.162 259.152 439.532 259.152H304.049V243.398H439.532C471.827 243.398 497.821 269.392 497.821 301.687V305.625C497.822 337.92 471.828 363.914 439.532 363.914Z" fill="#183651"/>
<path d="M351.311 170.142L326.105 144.148L351.311 118.154L363.126 129.182L348.16 144.148L363.126 159.114L351.311 170.142Z" fill="#183651"/>
<path d="M439.532 152.025H337.132V136.271H439.532C463.163 136.271 482.067 117.366 482.067 93.736V89.798C482.067 66.167 463.162 47.263 439.532 47.263H304.049V31.508H439.532C471.827 31.508 497.821 57.502 497.821 89.797V93.735C497.822 126.031 471.828 152.025 439.532 152.025Z" fill="#183651"/>
<path d="M496.246 432.443H392.271V496.246H496.246V432.443Z" fill="#F06151"/>
<path d="M496.246 504.123H392.271C387.545 504.123 384.394 500.972 384.394 496.246V432.443C384.394 427.717 387.545 424.566 392.271 424.566H496.246C500.972 424.566 504.123 427.717 504.123 432.443V496.246C504.123 500.972 500.972 504.123 496.246 504.123ZM400.148 488.369H488.37V440.32H400.148V488.369Z" fill="#183651"/>
<path d="M111.852 7.87701H7.87695V71.68H111.852V7.87701Z" fill="#F06151"/>
<path d="M111.852 79.557H7.877C3.151 79.557 0 76.406 0 71.68V7.877C0 3.151 3.151 0 7.877 0H111.852C116.578 0 119.729 3.151 119.729 7.877V71.68C119.729 75.618 116.578 79.557 111.852 79.557ZM15.754 63.803H103.976V15.754H15.754V63.803Z" fill="#183651"/>
</g>
<defs>
<clipPath id="clip0">
<rect width="504.123" height="504.123" fill="white"/>
</clipPath>
</defs>
</svg>
