<svg width="512" height="379" viewBox="0 0 512 379" fill="none" xmlns="http://www.w3.org/2000/svg">
<path d="M407 0H105C47.1016 0 0 47.1016 0 105V273.945C0 331.844 47.1016 378.945 105 378.945H120.582H157.102C165 378.945 164.289 378.945 168.883 378.945C173.477 378.945 172 378.945 180.664 378.945H217.184H407C464.898 378.945 512 331.844 512 273.945V105C512 47.1016 464.898 0 407 0Z" fill="#6787F5"/>
<path d="M407 0H256V378.945H407C464.898 378.945 512 331.844 512 273.945V105C512 47.1016 464.898 0 407 0Z" fill="#38478A"/>
<path d="M512 123.254H385.879L479.762 29.3711C460.875 11.1953 435.223 0 407 0H381.855L322.242 59.6133V0H189.762V59.6133L130.148 0H105C76.7773 0 51.125 11.1953 32.2383 29.3711L126.121 123.254H0V255.734H126.121L35.7617 346.09L32.2578 349.594C51.1445 367.762 76.7891 378.945 105 378.945H120.582H130.188L188.152 320.977L187.125 378.945H322.238V319.539L381.449 378.945H407C435.09 378.945 460.637 367.859 479.496 349.832L475.965 346.285L385.715 255.734H512V123.254Z" fill="white"/>
<path d="M512 123.254H385.879L479.762 29.3711C460.875 11.1953 435.223 0 407 0H381.855L322.242 59.6133V0H256V378.945H322.238V319.539L381.449 378.945H407C435.09 378.945 460.637 367.859 479.496 349.832L475.965 346.285L385.715 255.734H512V123.254Z" fill="#C7D3ED"/>
<path d="M292.238 153.254V0H219.762V153.254H0V225.734H219.762L217.184 378.945H292.238V225.734H512V153.254H292.238Z" fill="#FF337A"/>
<path d="M292.238 153.254V0H256V378.945H292.238V225.734H512V153.254H292.238Z" fill="#D1005B"/>
<path d="M199.758 133.25V112.039L88.9453 1.22656C77.582 2.97656 66.8125 6.55859 56.9492 11.6562L178.547 133.25H199.758Z" fill="#FF337A"/>
<path d="M455.051 11.6562C445.188 6.55859 434.418 2.97656 423.055 1.22656L312.242 112.039V133.25H333.453L455.051 11.6562Z" fill="#D1005B"/>
<path d="M56.9766 367.305C66.8438 372.398 77.6133 375.977 88.9805 377.727L199.758 266.945V245.734H178.547L56.9766 367.305Z" fill="#FF337A"/>
<path d="M312.242 245.734V267.008L422.641 377.781C434.027 376.07 444.824 372.531 454.715 367.465L333.395 245.734H312.242Z" fill="#D1005B"/>
</svg>
