<svg width="254" height="300" viewBox="0 0 254 300" fill="none" xmlns="http://www.w3.org/2000/svg">
<path d="M207.622 122.576C189.869 106.642 182.41 82.5242 186.045 58.9478C186.556 55.6301 186.746 52.206 186.583 48.7086C185.352 22.4021 163.672 1.1318 137.346 0.3688C108.6 -0.464028 85.0357 22.5903 85.0357 51.1492C85.0357 55.4308 85.5654 59.589 86.5626 63.5607C92.3575 86.6372 86.6392 111.041 70.3242 128.359C53.9478 145.743 43.5885 169.088 43.5885 194.802C43.5885 254.023 66.6352 282.563 99.6102 291.555C107.197 288.149 118.199 286.006 130.444 286.006C142.092 286.006 152.611 287.946 160.139 291.066C200.827 282.91 220.128 263.093 233.595 217.339C244.351 180.795 227.676 140.573 207.622 122.576Z" fill="#333333"/>
<path d="M207.622 122.576C189.869 106.642 182.41 82.5242 186.045 58.9478C186.556 55.6301 186.746 52.206 186.583 48.7086C185.352 22.4022 163.672 1.13183 137.346 0.368832C135.007 0.300707 132.706 0.40715 130.445 0.646439V286.006C144.003 286.006 156.039 288.631 163.599 292.691C202.095 286.689 220.507 261.811 233.595 217.339C244.351 180.795 227.676 140.573 207.622 122.576Z" fill="#333333"/>
<path d="M65.1211 206.806C65.1211 168.196 96.0541 78.7849 134.212 78.7849C172.369 78.7849 203.302 168.649 203.302 206.806C203.302 244.964 172.369 275.897 134.212 275.897C96.0541 275.897 65.1211 244.964 65.1211 206.806Z" fill="white"/>
<path d="M134.213 78.7849C132.949 78.7849 131.693 78.8897 130.445 79.0804V275.79C131.693 275.858 132.948 275.897 134.213 275.897C172.37 275.897 203.303 244.964 203.303 206.806C203.303 168.649 172.37 78.7849 134.213 78.7849Z" fill="white"/>
<path d="M108.731 74.7247C115.015 74.7247 120.11 67.8087 120.11 59.2774C120.11 50.746 115.015 43.83 108.731 43.83C102.446 43.83 97.3511 50.746 97.3511 59.2774C97.3511 67.8087 102.446 74.7247 108.731 74.7247Z" fill="#E6E6E6"/>
<path d="M108.73 72.7993C111.847 72.7993 114.374 68.3161 114.374 62.7858C114.374 57.2555 111.847 52.7723 108.73 52.7723C105.614 52.7723 103.087 57.2555 103.087 62.7858C103.087 68.3161 105.614 72.7993 108.73 72.7993Z" fill="#000100"/>
<path d="M149.248 74.7247C155.532 74.7247 160.627 67.8087 160.627 59.2774C160.627 50.746 155.532 43.83 149.248 43.83C142.963 43.83 137.868 50.746 137.868 59.2774C137.868 67.8087 142.963 74.7247 149.248 74.7247Z" fill="#E6E6E6"/>
<path d="M149.248 72.7993C152.364 72.7993 154.891 68.3161 154.891 62.7858C154.891 57.2555 152.364 52.7723 149.248 52.7723C146.131 52.7723 143.604 57.2555 143.604 62.7858C143.604 68.3161 146.131 72.7993 149.248 72.7993Z" fill="#000100"/>
<path d="M164.491 85.6937C168.207 93.6191 139.903 108.656 130.047 108.656C117.753 108.656 92.079 90.4854 95.6028 85.6937C102.178 76.7522 116.533 62.3251 128.319 62.3251C136.81 62.3251 161.965 80.3084 164.491 85.6937Z" fill="#FFC708"/>
<path d="M164.49 85.6937C162.149 80.7026 140.38 64.9002 130.445 62.6121V108.638C140.632 108.263 168.159 93.5178 164.49 85.6937Z" fill="#FFC708"/>
<path d="M207.57 209.365C212.592 219.067 220.062 228.23 229.697 230.351C236.802 231.915 242.176 237.962 242.969 245.194C243.079 246.198 243.228 247.204 243.418 248.214C244.645 254.753 247.422 260.608 251.296 265.472C257.113 272.775 252.92 283.667 243.747 285.406L171.309 299.134C155.531 302.124 143.662 285.017 151.986 271.284L191.983 208.576C195.726 202.705 204.369 203.181 207.57 209.365Z" fill="#FFC708"/>
<path d="M129.929 104.164C119.636 104.164 109.137 99.133 98.6676 89.1706L102.19 85.4689C112.627 95.3998 122.875 99.9216 132.641 98.915C146.122 97.5227 154.237 85.9841 154.317 85.8682L158.522 88.7721C158.139 89.3264 148.963 102.366 133.166 103.997C132.089 104.109 131.009 104.164 129.929 104.164Z" fill="#AE4E32"/>
<path d="M132.64 98.915C131.912 98.99 131.179 99.024 130.445 99.0376V104.15C131.353 104.135 132.26 104.091 133.163 103.997C148.961 102.366 158.136 89.3256 158.52 88.7721L154.315 85.8682C154.236 85.984 146.12 97.5227 132.64 98.915Z" fill="#9E402B"/>
<path d="M60.6173 195.102C60.6173 195.102 85.4139 225.332 103.084 232.145C120.754 238.957 94.6797 258.736 70.836 243.737C46.9923 228.738 60.6173 195.102 60.6173 195.102Z" fill="#333333"/>
<path d="M47.2902 209.365C42.2677 219.067 34.7978 228.23 25.1632 230.351C18.0578 231.915 12.6836 237.962 11.8908 245.194C11.7809 246.198 11.6319 247.204 11.4429 248.214C10.2158 254.753 7.43882 260.608 3.56421 265.472C-2.25282 272.775 1.94027 283.667 11.1133 285.406L83.5515 299.134C99.3301 302.124 111.199 285.017 102.874 271.284L62.8781 208.576C59.1338 202.705 50.4904 203.181 47.2902 209.365Z" fill="#FFC708"/>
</svg>
