<svg width="512" height="512" viewBox="0 0 512 512" fill="none" xmlns="http://www.w3.org/2000/svg">
<path d="M256 512C397.385 512 512 397.385 512 256C512 114.615 397.385 0 256 0C114.615 0 0 114.615 0 256C0 397.385 114.615 512 256 512Z" fill="#21FFD6"/>
<path d="M302.035 78.453L103.938 389.559L223.394 509.943C234.071 511.3 244.954 512 256 512C387.031 512 495.052 413.552 510.173 286.592L302.035 78.453Z" fill="#21FFD6"/>
<path d="M343.63 203.832C322.782 185.121 314.023 156.799 318.291 129.113C318.892 125.217 319.115 121.196 318.923 117.089C317.477 86.197 292.018 61.219 261.104 60.323C227.347 59.345 199.675 86.418 199.675 119.955C199.675 124.983 200.297 129.866 201.468 134.53C208.273 161.629 201.558 190.287 182.399 210.624C163.168 231.038 151.003 258.452 151.003 288.648C151.003 358.192 178.067 391.707 216.79 402.266C225.699 398.267 238.619 395.75 252.999 395.75C266.677 395.75 279.029 398.028 287.87 401.692C335.65 392.114 358.316 368.843 374.13 315.114C386.761 272.2 367.179 224.966 343.63 203.832Z" fill="#333333"/>
<path d="M343.63 203.832C322.782 185.121 314.023 156.799 318.291 129.113C318.892 125.217 319.115 121.196 318.923 117.089C317.477 86.197 292.018 61.219 261.104 60.323C258.357 60.243 255.655 60.368 253 60.649V395.75C268.921 395.75 283.055 398.833 291.933 403.6C337.139 396.552 358.76 367.338 374.13 315.114C386.761 272.2 367.179 224.966 343.63 203.832Z" fill="black"/>
<path d="M176.289 302.745C176.289 257.405 212.614 152.408 257.423 152.408C302.232 152.408 338.557 257.936 338.557 302.745C338.557 347.554 302.232 383.879 257.423 383.879C212.614 383.879 176.289 347.554 176.289 302.745Z" fill="white"/>
<path d="M257.424 152.408C255.94 152.408 254.465 152.531 253 152.755V383.754C254.465 383.833 255.939 383.879 257.424 383.879C302.233 383.879 338.558 347.554 338.558 302.745C338.558 257.936 302.233 152.408 257.424 152.408Z" fill="#C0C2C1"/>
<path d="M227.5 147.64C234.88 147.64 240.863 139.518 240.863 129.5C240.863 119.482 234.88 111.36 227.5 111.36C220.12 111.36 214.137 119.482 214.137 129.5C214.137 139.518 220.12 147.64 227.5 147.64Z" fill="#E6E6E6"/>
<path d="M227.5 145.379C231.16 145.379 234.127 140.114 234.127 133.62C234.127 127.126 231.16 121.861 227.5 121.861C223.84 121.861 220.873 127.126 220.873 133.62C220.873 140.114 223.84 145.379 227.5 145.379Z" fill="#000100"/>
<path d="M275.08 147.64C282.46 147.64 288.443 139.518 288.443 129.5C288.443 119.482 282.46 111.36 275.08 111.36C267.7 111.36 261.717 119.482 261.717 129.5C261.717 139.518 267.7 147.64 275.08 147.64Z" fill="#E6E6E6"/>
<path d="M275.08 145.379C278.74 145.379 281.707 140.114 281.707 133.62C281.707 127.126 278.74 121.861 275.08 121.861C271.42 121.861 268.453 127.126 268.453 133.62C268.453 140.114 271.42 145.379 275.08 145.379Z" fill="#000100"/>
<path d="M292.98 160.521C297.344 169.828 264.106 187.486 252.532 187.486C238.095 187.486 207.946 166.148 212.084 160.521C219.805 150.021 236.663 133.079 250.503 133.079C260.474 133.079 290.014 154.197 292.98 160.521Z" fill="#FE9A0F"/>
<path d="M292.979 160.521C290.23 154.66 264.667 136.103 253 133.416V187.465C264.962 187.025 297.288 169.709 292.979 160.521Z" fill="#E2810C"/>
<path d="M343.568 305.75C349.466 317.143 358.238 327.903 369.552 330.394C377.896 332.231 384.207 339.331 385.138 347.824C385.267 349.003 385.442 350.185 385.665 351.37C387.106 359.049 390.367 365.925 394.917 371.637C401.748 380.213 396.824 393.004 386.052 395.045L300.987 411.166C282.458 414.678 268.52 394.589 278.296 378.462L325.264 304.823C329.66 297.929 339.81 298.488 343.568 305.75Z" fill="#DD7F10"/>
<path d="M252.394 182.211C240.306 182.211 227.977 176.303 215.683 164.604L219.819 160.257C232.076 171.919 244.11 177.229 255.578 176.047C271.409 174.412 280.939 160.862 281.033 160.726L285.971 164.136C285.521 164.787 274.745 180.1 256.195 182.015C254.93 182.146 253.662 182.211 252.394 182.211Z" fill="#AE4E32"/>
<path d="M255.577 176.047C254.722 176.135 253.862 176.175 253 176.191V182.195C254.066 182.177 255.131 182.125 256.192 182.015C274.743 180.1 285.518 164.786 285.968 164.136L281.03 160.726C280.938 160.862 271.407 174.412 255.577 176.047Z" fill="#9E402B"/>
<path d="M355.14 346.11C370.19 346.11 382.39 333.91 382.39 318.86C382.39 303.81 370.19 291.61 355.14 291.61C340.09 291.61 327.89 303.81 327.89 318.86C327.89 333.91 340.09 346.11 355.14 346.11Z" fill="black"/>
<path d="M171 289C171 289 200.119 324.5 220.869 332.5C241.619 340.5 211 363.727 183 346.113C155 328.5 171 289 171 289Z" fill="#333333"/>
<path d="M155.35 305.75C149.452 317.143 140.68 327.903 129.366 330.394C121.022 332.231 114.711 339.331 113.78 347.824C113.651 349.003 113.476 350.185 113.254 351.37C111.813 359.049 108.552 365.925 104.002 371.637C97.171 380.213 102.095 393.004 112.867 395.045L197.932 411.166C216.461 414.678 230.399 394.589 220.623 378.462L173.655 304.823C169.258 297.929 159.108 298.488 155.35 305.75Z" fill="#FE9B0E"/>
</svg>
