<svg width="512" height="512" viewBox="0 0 512 512" fill="none" xmlns="http://www.w3.org/2000/svg">
<path d="M448 232C448 109.28 341.722 11.3825 216.184 25.3256C119.836 36.0267 42.6961 114.172 33.0687 210.633C27.7845 263.578 42.394 312.949 70.2973 352.225C98.3356 391.692 112 439.587 112 488V488H312V448H416V344H472L448 232Z" fill="#2098FF"/>
<path d="M295.288 210.137C295.71 206.81 296 203.442 296 200C296 196.558 295.71 193.19 295.288 189.863L277.537 182.581C276.166 177.727 274.264 173.102 271.848 168.79L279.233 151.12C275.073 145.746 270.255 140.928 264.88 136.768L247.21 144.152C242.898 141.737 238.273 139.835 233.419 138.463L226.137 120.712C222.81 120.29 219.442 120 216 120C212.558 120 209.19 120.29 205.863 120.712L198.581 138.463C193.727 139.834 189.102 141.737 184.79 144.152L167.121 136.767C161.746 140.927 156.928 145.745 152.767 151.119L160.152 168.79C157.737 173.102 155.835 177.727 154.463 182.581L136.712 189.863C136.29 193.19 136 196.558 136 200C136 203.442 136.29 206.81 136.712 210.137L154.462 217.418C155.834 222.273 157.737 226.898 160.152 231.21L152.767 248.879C156.927 254.254 161.745 259.071 167.119 263.232L184.79 255.848C189.102 258.263 193.726 260.165 198.581 261.537L205.863 279.288C209.19 279.71 212.558 280 216 280C219.442 280 222.81 279.71 226.137 279.288L233.419 261.537C238.273 260.166 242.898 258.264 247.21 255.848L264.88 263.233C270.254 259.072 275.072 254.255 279.233 248.88L271.848 231.21C274.263 226.898 276.165 222.273 277.537 217.419L295.288 210.137ZM216 232C198.327 232 184 217.673 184 200C184 182.327 198.327 168 216 168C233.673 168 248 182.327 248 200C248 217.673 233.673 232 216 232Z" fill="#E34E4B"/>
<path d="M112 488V488H312V448H416V417.915C248.679 380.302 114.706 270.591 59.4568 128.837C45.305 153.476 36.0081 181.181 33.0687 210.633C27.7845 263.578 42.3939 312.949 70.2972 352.225C98.3353 391.692 112 439.587 112 488V488Z" fill="#2098FF"/>
<path d="M104 488C104 492.418 107.578 496 112 496H312C316.422 496 320 492.418 320 488V456H416C420.422 456 424 452.418 424 448V352H472C474.414 352 476.703 350.91 478.219 349.031C479.742 347.152 480.328 344.688 479.82 342.324L456 231.145C455.758 170.094 429.547 111.77 384.008 71.0078C337.625 29.4883 277.695 10.4453 215.304 17.375C115.117 28.5039 35.1247 109.445 25.1091 209.836C19.8826 262.191 33.6091 314.406 63.7732 356.859C90.0935 393.898 104 439.246 104 488V488ZM41.0311 211.426C50.3045 118.5 124.336 43.5781 217.07 33.2734C274.922 26.875 330.39 44.4883 373.336 82.9297C415.703 120.852 440 175.184 440 232C440 232.562 440.062 233.125 440.179 233.676L462.101 336H416C411.578 336 408 339.582 408 344V440H312H280V456H304V480H119.883C118.429 430.941 103.617 385.312 76.8201 347.594C48.8982 308.293 36.1873 259.934 41.0311 211.426V211.426Z" fill="#0D0F23"/>
<path d="M286.617 245.793L280.672 231.586C281.953 228.953 283.086 226.215 284.055 223.394L298.328 217.539C300.992 216.445 302.859 214 303.227 211.144C303.758 206.973 304 203.434 304 200C304 196.566 303.758 193.027 303.227 188.855C302.859 186 300.992 183.555 298.328 182.461L284.055 176.605C283.086 173.789 281.961 171.051 280.68 168.414L286.617 154.207C287.727 151.547 287.32 148.5 285.555 146.223C280.984 140.316 275.68 135.008 269.781 130.441C267.5 128.668 264.438 128.277 261.797 129.383L247.586 135.324C244.945 134.043 242.211 132.914 239.398 131.949L233.539 117.676C232.445 115.008 230.008 113.137 227.148 112.773C218.805 111.719 213.195 111.719 204.852 112.773C201.992 113.137 199.555 115.008 198.461 117.676L192.602 131.949C189.789 132.914 187.055 134.043 184.414 135.324L170.203 129.383C167.555 128.277 164.492 128.668 162.219 130.441C156.32 135.012 151.016 140.316 146.445 146.215C144.68 148.492 144.273 151.543 145.383 154.203L151.328 168.41C150.047 171.047 148.914 173.785 147.945 176.605L133.672 182.461C131.008 183.555 129.14 186 128.773 188.855C128.242 193.027 128 196.566 128 200C128 203.434 128.242 206.973 128.773 211.145C129.141 214 131.008 216.445 133.672 217.539L147.945 223.395C148.914 226.211 150.039 228.949 151.32 231.586L145.383 245.793C144.273 248.453 144.68 251.5 146.445 253.777C151.016 259.684 156.32 264.992 162.219 269.559C164.492 271.328 167.555 271.719 170.203 270.617L184.414 264.676C187.055 265.957 189.789 267.086 192.602 268.051L198.461 282.324C199.555 284.992 201.992 286.863 204.852 287.227C209.023 287.754 212.562 288 216 288C219.438 288 222.977 287.754 227.148 287.227C230.008 286.863 232.445 284.992 233.539 282.324L239.398 268.051C242.219 267.086 244.953 265.957 247.586 264.676L261.797 270.617C264.438 271.719 267.5 271.328 269.781 269.559C275.68 264.992 280.984 259.684 285.555 253.777C287.32 251.5 287.727 248.449 286.617 245.793V245.793ZM274.5 210.016C272.227 210.949 270.508 212.875 269.844 215.238C268.625 219.52 266.953 223.578 264.867 227.293C263.664 229.441 263.516 232.027 264.461 234.297L269.992 247.512C267.969 249.809 265.805 251.973 263.516 253.992L250.297 248.465C248.024 247.52 245.445 247.664 243.297 248.871C239.578 250.957 235.524 252.629 231.242 253.844C228.875 254.512 226.953 256.23 226.024 258.504L220.555 271.824C217.352 272.059 214.649 272.059 211.445 271.824L205.977 258.504C205.047 256.23 203.125 254.512 200.758 253.844C196.492 252.633 192.438 250.957 188.696 248.867C186.539 247.672 183.977 247.52 181.703 248.465L168.485 253.992C166.196 251.973 164.032 249.805 162.008 247.512L167.532 234.297C168.477 232.027 168.328 229.449 167.133 227.305C165.039 223.574 163.368 219.516 162.157 215.238C161.492 212.875 159.774 210.949 157.5 210.016L144.18 204.551C144.055 202.949 144 201.453 144 200C144 198.547 144.055 197.051 144.18 195.449L157.5 189.984C159.773 189.051 161.492 187.125 162.156 184.762C163.375 180.48 165.047 176.422 167.133 172.707C168.336 170.559 168.484 167.976 167.539 165.703L162.008 152.484C164.031 150.191 166.195 148.027 168.484 146.008L181.703 151.535C183.976 152.48 186.539 152.328 188.695 151.133C192.437 149.043 196.492 147.367 200.758 146.156C203.125 145.488 205.047 143.77 205.976 141.496L211.445 128.176C214.648 127.941 217.351 127.941 220.554 128.176L226.023 141.496C226.953 143.77 228.875 145.488 231.242 146.156C235.508 147.367 239.562 149.043 243.304 151.133C245.445 152.328 248.023 152.48 250.297 151.535L263.515 146.008C265.804 148.027 267.968 150.195 269.992 152.488L264.468 165.703C263.523 167.973 263.672 170.551 264.867 172.695C266.961 176.426 268.632 180.484 269.843 184.762C270.507 187.125 272.226 189.051 274.5 189.984L287.82 195.449C287.945 197.051 288 198.547 288 200C288 201.453 287.945 202.949 287.82 204.551L274.5 210.016Z" fill="#0D0F23"/>
<path d="M216 160C193.945 160 176 177.945 176 200C176 222.055 193.945 240 216 240C238.055 240 256 222.055 256 200C256 177.945 238.055 160 216 160ZM216 224C202.766 224 192 213.234 192 200C192 186.766 202.766 176 216 176C229.234 176 240 186.766 240 200C240 213.234 229.234 224 216 224Z" fill="#0D0F23"/>
<path d="M282.391 290.219L291.891 303.094C301.047 296.344 309.273 288.398 316.352 279.473L303.82 269.527C297.617 277.348 290.406 284.309 282.391 290.219V290.219Z" fill="#0D0F23"/>
<path d="M228.945 327.355L227.336 311.434C223.617 311.809 219.844 312 216.102 312C209.891 312.293 203.648 311.496 197.57 310.492L194.961 326.273C201.906 327.422 209.32 327.906 216.109 328C220.375 328 224.688 327.781 228.945 327.355V327.355Z" fill="#0D0F23"/>
<path d="M339.398 234.129L323.977 229.871C321.328 239.473 317.391 248.68 312.289 257.242L326.023 265.437C331.867 255.648 336.367 245.113 339.398 234.129V234.129Z" fill="#0D0F23"/>
<path d="M102.008 258.262L116.242 250.965C112.797 244.23 110.031 237.137 108.024 229.871C105.352 220.199 104 210.148 104 200C104 138.242 154.242 88 216 88H276.688L266.344 98.3437L277.656 109.656L301.656 85.6562C304.781 82.5313 304.781 77.4687 301.656 74.3437L277.656 50.3438L266.344 61.6562L276.688 72H216C145.422 72 88 129.422 88 200C88 211.586 89.5469 223.07 92.6016 234.129C94.8984 242.441 98.0625 250.559 102.008 258.262Z" fill="#0D0F23"/>
<path d="M242.047 308.957L245.75 324.52C256.828 321.887 267.508 317.766 277.516 312.273L269.812 298.25C261.07 303.051 251.727 306.652 242.047 308.957Z" fill="#0D0F23"/>
<path d="M147.43 308.098C157.055 314.219 167.453 319.02 178.336 322.367L183.039 307.07C173.523 304.148 164.437 299.949 156.023 294.598L147.43 308.098Z" fill="#0D0F23"/>
<path d="M123.914 263.762L110.758 272.879C117.242 282.227 124.945 290.684 133.672 298.02L143.969 285.77C136.328 279.348 129.578 271.945 123.914 263.762V263.762Z" fill="#0D0F23"/>
<path d="M184 440H200V456H184V440Z" fill="#0D0F23"/>
<path d="M216 440H232V456H216V440Z" fill="#0D0F23"/>
<path d="M248 440H264V456H248V440Z" fill="#0D0F23"/>
</svg>
