<svg width="512" height="512" viewBox="0 0 512 512" fill="none" xmlns="http://www.w3.org/2000/svg">
<g clip-path="url(#clip0)">
<path d="M162.363 317.032C134.182 320.592 43.783 323.983 43.783 323.983V441.733H463.126V97.4654H463.053C402.326 204.712 279.193 302.273 162.363 317.032Z" fill="#E2F1FE"/>
<path d="M463.053 97.4706C455.107 111.499 446.076 125.238 436.113 138.563V441.736H463.125V97.4706H463.053Z" fill="#C4E3FF"/>
<path d="M369.318 368.959C365.032 368.959 361.559 365.485 361.559 361.2V360.201C361.559 355.916 365.032 352.442 369.318 352.442C373.604 352.442 377.077 355.916 377.077 360.201V361.2C377.077 365.485 373.604 368.959 369.318 368.959Z" fill="#C4E3FF"/>
<path d="M377.077 397.938V398.937C377.077 403.222 373.604 406.696 369.318 406.696C365.032 406.696 361.559 403.222 361.559 398.937V397.938C361.559 393.653 365.032 390.179 369.318 390.179C373.604 390.179 377.077 393.653 377.077 397.938Z" fill="#C4E3FF"/>
<path d="M377.077 322.365V323.363C377.077 327.648 373.604 331.122 369.318 331.122C365.032 331.122 361.559 327.648 361.559 323.363V322.365C361.559 318.08 365.032 314.606 369.318 314.606C373.604 314.606 377.077 318.08 377.077 322.365Z" fill="#C4E3FF"/>
<path d="M369.318 293.385C365.032 293.385 361.559 289.911 361.559 285.626V284.628C361.559 280.343 365.032 276.869 369.318 276.869C373.604 276.869 377.077 280.343 377.077 284.628V285.626C377.077 289.911 373.604 293.385 369.318 293.385Z" fill="#C4E3FF"/>
<path d="M369.318 255.143C365.032 255.143 361.559 251.669 361.559 247.384V246.386C361.559 242.101 365.032 238.627 369.318 238.627C373.604 238.627 377.077 242.101 377.077 246.386V247.384C377.077 251.669 373.604 255.143 369.318 255.143Z" fill="#C4E3FF"/>
<path d="M256.362 368.959C252.076 368.959 248.603 365.485 248.603 361.2V360.201C248.603 355.916 252.076 352.442 256.362 352.442C260.648 352.442 264.121 355.916 264.121 360.201V361.2C264.121 365.485 260.648 368.959 256.362 368.959Z" fill="#C4E3FF"/>
<path d="M264.121 397.938V398.937C264.121 403.222 260.648 406.696 256.362 406.696C252.076 406.696 248.603 403.222 248.603 398.937V397.938C248.603 393.653 252.076 390.179 256.362 390.179C260.648 390.179 264.121 393.653 264.121 397.938Z" fill="#C4E3FF"/>
<path d="M264.121 322.365V323.363C264.121 327.648 260.648 331.122 256.362 331.122C252.076 331.122 248.603 327.648 248.603 323.363V322.365C248.603 318.08 252.076 314.606 256.362 314.606C260.648 314.606 264.121 318.08 264.121 322.365Z" fill="#C4E3FF"/>
<path d="M143.407 368.959C139.121 368.959 135.648 365.485 135.648 361.2V360.201C135.648 355.916 139.121 352.442 143.407 352.442C147.693 352.442 151.166 355.916 151.166 360.201V361.2C151.166 365.485 147.692 368.959 143.407 368.959Z" fill="#C4E3FF"/>
<path d="M151.166 397.938V398.937C151.166 403.222 147.693 406.696 143.407 406.696C139.121 406.696 135.648 403.222 135.648 398.937V397.938C135.648 393.653 139.121 390.179 143.407 390.179C147.693 390.179 151.166 393.653 151.166 397.938Z" fill="#C4E3FF"/>
<path d="M499.327 91.4144L488.021 60.7743C487.547 58.3069 485.888 56.1147 483.396 55.0729C482.527 54.7098 481.629 54.5256 480.739 54.4863C480.676 54.4822 480.613 54.4801 480.55 54.478C480.435 54.476 480.32 54.476 480.206 54.4791C479.34 54.4884 478.461 54.6343 477.602 54.9519L445.732 66.7115C441.712 68.1951 439.655 72.657 441.139 76.6762C442.621 80.6965 447.083 82.7542 451.104 81.2696L465.725 75.8745C439.987 128.906 397.949 180.563 345.794 222.895C287.175 270.474 221.661 301.175 161.323 309.343C133.871 313.059 49.5184 316.198 48.6701 316.229C44.387 316.387 41.0434 319.987 41.2017 324.269C41.3558 328.453 44.7978 331.742 48.9504 331.742C49.0466 331.742 49.1439 331.741 49.2411 331.737C52.7379 331.608 135.204 328.538 163.404 324.721C226.526 316.176 294.773 284.293 355.574 234.943C409.404 191.25 452.873 137.802 479.607 82.7997L484.768 96.7857C485.924 99.9204 488.89 101.861 492.048 101.861C492.94 101.861 493.847 101.706 494.732 101.379C498.754 99.8966 500.81 95.4346 499.327 91.4144Z" fill="#21FFD6"/>
<path d="M143.406 489.562C139.121 489.562 135.647 486.088 135.647 481.803V449.374C135.647 445.089 139.121 441.615 143.406 441.615C147.691 441.615 151.165 445.089 151.165 449.374V481.803C151.165 486.088 147.692 489.562 143.406 489.562Z" fill="#C4E3FF"/>
<path d="M256.363 489.562C252.078 489.562 248.604 486.088 248.604 481.803V449.374C248.604 445.089 252.078 441.615 256.363 441.615C260.648 441.615 264.122 445.089 264.122 449.374V481.803C264.122 486.088 260.648 489.562 256.363 489.562Z" fill="#C4E3FF"/>
<path d="M369.318 489.562C365.033 489.562 361.559 486.088 361.559 481.803V449.374C361.559 445.089 365.033 441.615 369.318 441.615C373.603 441.615 377.077 445.089 377.077 449.374V481.803C377.077 486.088 373.603 489.562 369.318 489.562Z" fill="#C4E3FF"/>
<path d="M509.711 446.878L471.981 419.328C471.722 419.141 471.422 418.955 471.101 418.8C470.998 418.748 470.905 418.707 470.801 418.655C467.294 417.217 463.146 419.752 463.146 423.818V429.404C462.76 434.776 458.75 435.089 457.021 435.529H48.9556V77.5339C48.9556 74.0868 51.7499 71.2925 55.198 71.2925H60.6563C65.2083 71.2925 67.836 66.1301 65.1565 62.4575L37.6066 24.7276C35.3824 21.6757 30.8407 21.6757 28.6268 24.7276L1.07686 62.4575C-1.6026 66.1301 1.02514 71.2925 5.56679 71.2925H11.0354C14.4825 71.2925 17.2778 74.0868 17.2778 77.5339V435.529V458.738V458.742C17.2778 463.417 21.0674 467.206 25.7425 467.206H457.021C461.269 467.893 461.441 469.46 462.328 470.258C462.846 471.158 463.146 472.203 463.146 473.32V478.907C463.146 483.273 467.884 485.859 471.515 483.718C471.681 483.614 471.836 483.511 471.981 483.407L509.711 455.857C512.762 453.633 512.762 449.091 509.711 446.878Z" fill="#6C7FD8"/>
<path d="M509.711 455.857L471.981 483.407C471.836 483.511 471.681 483.614 471.515 483.718C467.884 485.859 463.146 483.273 463.146 478.907V473.32C463.146 472.203 462.846 471.158 462.328 470.258C464.573 471.81 466.57 472.865 468.556 472.689C469.405 472.607 470.253 472.307 471.029 471.738L492.785 455.857C495.837 453.633 495.837 449.091 492.785 446.878L471.029 430.997C470.253 430.428 469.405 430.128 468.556 430.045C466.508 429.87 464.791 430.211 462.68 431.763C462.98 431.039 463.146 430.242 463.146 429.404V423.818C463.146 419.752 467.294 417.217 470.801 418.655C470.905 418.707 470.998 418.748 471.101 418.8C471.422 418.955 471.722 419.141 471.981 419.328L509.711 446.878C512.762 449.091 512.762 453.633 509.711 455.857Z" fill="#4F66D0"/>
<path d="M65.1565 62.4575L37.6066 24.7276C35.3823 21.6757 30.8407 21.6757 28.6268 24.7276L24.6531 30.1694L48.2293 62.4575C50.9088 66.1301 48.281 71.2925 43.729 71.2925H40.1754C35.6761 71.2925 32.0283 74.9403 32.0283 79.4395L31.5256 427.923C31.5193 432.12 34.9199 435.525 39.117 435.525H48.9545V77.5339C48.9545 74.0868 51.7488 71.2925 55.1959 71.2925H60.6552C65.2082 71.2925 67.836 66.1301 65.1565 62.4575Z" fill="#4F66D0"/>
<path d="M253.768 120.128L272.661 95.0725C275.241 91.6502 274.558 86.7858 271.137 84.2056C267.714 81.6245 262.849 82.3083 260.27 85.7295L244.019 107.282L227.647 85.7099C225.057 82.2969 220.19 81.6296 216.776 84.2201C213.363 86.8106 212.696 91.6771 215.286 95.0911L234.309 120.158L212.884 148.573C210.304 151.995 210.987 156.86 214.408 159.44C216.578 161.143 221.695 162.038 225.275 157.916L244.059 133.004L263.826 159.051C266.288 161.289 269.211 163.769 274.697 160.541C278.11 157.95 278.777 153.084 276.187 149.67L253.768 120.128Z" fill="#678D98"/>
<path d="M160.615 64.5028C159.501 64.2462 149.512 62.1626 142.308 67.8992C139.391 70.2217 135.914 74.6485 135.914 82.5524V96.3388H133.023C128.737 96.3388 125.263 99.8128 125.263 104.098C125.263 108.383 128.737 111.857 133.023 111.857H135.914V165.725C135.914 170.01 139.388 173.484 143.673 173.484C147.958 173.484 151.432 170.01 151.432 165.725V111.857H157.739C162.024 111.857 165.498 108.383 165.498 104.098C165.498 99.8128 162.024 96.3388 157.739 96.3388H151.432V82.5524C151.432 81.1206 151.701 80.2609 151.968 80.0447C152.795 79.3733 155.453 79.2761 157.196 79.6392C161.355 80.5599 165.482 77.9601 166.438 73.8033C167.398 69.6269 164.791 65.4638 160.615 64.5028Z" fill="#678D98"/>
<path d="M196.804 79.8037C192.825 78.2115 188.311 80.1492 186.718 84.127C186.188 85.4554 173.857 117.192 186.426 164.336C187.352 167.807 190.488 170.099 193.918 170.099C197.899 170.178 202.633 165.92 201.42 160.339C190.29 118.589 200.975 90.2826 201.137 89.8646C202.71 85.892 200.775 81.3917 196.804 79.8037Z" fill="#678D98"/>
<path d="M302.917 81.8355C301.326 77.8566 296.811 75.921 292.832 77.5121C288.853 79.1033 286.917 83.6191 288.508 87.5979C288.619 87.8762 299.471 115.826 288.215 158.047C287.112 162.188 289.574 166.439 293.714 167.543C296.885 168.395 301.568 166.835 303.21 162.045C315.779 114.901 303.448 83.1628 302.917 81.8355Z" fill="#678D98"/>
</g>
<defs>
<clipPath id="clip0">
<rect width="512" height="512" fill="white"/>
</clipPath>
</defs>
</svg>
