<svg width="343" height="343" viewBox="0 0 343 343" fill="none" xmlns="http://www.w3.org/2000/svg">
<path d="M293.426 0H49.5742C22.2387 0 0 22.2387 0 49.5742C0 76.9097 22.2387 99.1484 49.5742 99.1484H293.426C320.761 99.1484 343 76.9097 343 49.5742C343 22.2387 320.761 0 293.426 0ZM293.426 72.3516H49.5742C37.0145 72.3516 26.7969 62.1339 26.7969 49.5742C26.7969 37.0145 37.0145 26.7969 49.5742 26.7969H293.426C305.985 26.7969 316.203 37.0145 316.203 49.5742C316.203 62.1339 305.985 72.3516 293.426 72.3516Z" fill="url(#paint0_linear)"/>
<path d="M293.426 121.926H49.5742C22.2387 121.926 0 144.165 0 171.5C0 198.835 22.2387 221.074 49.5742 221.074H293.426C320.761 221.074 343 198.835 343 171.5C343 144.165 320.761 121.926 293.426 121.926ZM293.426 194.277H49.5742C37.0145 194.277 26.7969 184.06 26.7969 171.5C26.7969 158.94 37.0145 148.723 49.5742 148.723H293.426C305.985 148.723 316.203 158.94 316.203 171.5C316.203 184.06 305.985 194.277 293.426 194.277Z" fill="url(#paint1_linear)"/>
<path fill-rule="evenodd" clip-rule="evenodd" d="M293.426 243.852H49.5742C22.2387 243.852 0 266.09 0 293.426C0 320.761 22.2387 343 49.5742 343H293.426C320.761 343 343 320.761 343 293.426C343 266.09 320.761 243.852 293.426 243.852ZM26.7969 293.426C26.7969 305.985 37.0145 316.203 49.5742 316.203H293.426C305.985 316.203 316.203 305.985 316.203 293.426C316.203 280.866 305.985 270.648 293.426 270.648H49.5742C37.0145 270.648 26.7969 280.866 26.7969 293.426Z" fill="url(#paint2_linear)"/>
<defs>
<linearGradient id="paint0_linear" x1="-146" y1="198.297" x2="495.742" y2="198.297" gradientUnits="userSpaceOnUse">
<stop offset="0.11539" stop-color="#21FFD6"/>
<stop offset="0.925207" stop-color="#2098FF"/>
</linearGradient>
<linearGradient id="paint1_linear" x1="-146" y1="198.297" x2="495.742" y2="198.297" gradientUnits="userSpaceOnUse">
<stop offset="0.11539" stop-color="#21FFD6"/>
<stop offset="0.925207" stop-color="#2098FF"/>
</linearGradient>
<linearGradient id="paint2_linear" x1="-146" y1="198.297" x2="495.742" y2="198.297" gradientUnits="userSpaceOnUse">
<stop offset="0.11539" stop-color="#21FFD6"/>
<stop offset="0.925207" stop-color="#2098FF"/>
</linearGradient>
</defs>
</svg>
