<svg width="512" height="512" viewBox="0 0 512 512" fill="none" xmlns="http://www.w3.org/2000/svg">
<path d="M438 0H74C33.196 0 0 33.196 0 74C0 114.804 33.196 148 74 148H438C478.804 148 512 114.804 512 74C512 33.196 478.804 0 438 0ZM438 108H74C55.252 108 40 92.748 40 74C40 55.252 55.252 40 74 40H438C456.748 40 472 55.252 472 74C472 92.748 456.748 108 438 108Z" fill="url(#paint0_linear)"/>
<path d="M438 182H74C33.196 182 0 215.196 0 256C0 296.804 33.196 330 74 330H438C478.804 330 512 296.804 512 256C512 215.196 478.804 182 438 182ZM438 290H74C55.252 290 40 274.748 40 256C40 237.252 55.252 222 74 222H438C456.748 222 472 237.252 472 256C472 274.748 456.748 290 438 290Z" fill="url(#paint1_linear)"/>
<path d="M438 364H74C33.196 364 0 397.196 0 438C0 478.804 33.196 512 74 512H338C349.046 512 358 503.046 358 492C358 480.954 349.046 472 338 472H74C55.252 472 40 456.748 40 438C40 419.252 55.252 404 74 404H438C456.748 404 472 419.252 472 438C472 456.748 456.748 472 438 472C426.954 472 418 480.954 418 492C418 503.046 426.954 512 438 512C478.804 512 512 478.804 512 438C512 397.196 478.804 364 438 364Z" fill="url(#paint2_linear)"/>
<defs>
<linearGradient id="paint0_linear" x1="-48" y1="296" x2="740" y2="296" gradientUnits="userSpaceOnUse">
<stop offset="0.284485" stop-color="#21FFD6"/>
<stop offset="0.760358" stop-color="#4EADFE"/>
</linearGradient>
<linearGradient id="paint1_linear" x1="-48" y1="296" x2="740" y2="296" gradientUnits="userSpaceOnUse">
<stop offset="0.284485" stop-color="#21FFD6"/>
<stop offset="0.760358" stop-color="#4EADFE"/>
</linearGradient>
<linearGradient id="paint2_linear" x1="-48" y1="296" x2="740" y2="296" gradientUnits="userSpaceOnUse">
<stop offset="0.284485" stop-color="#21FFD6"/>
<stop offset="0.760358" stop-color="#4EADFE"/>
</linearGradient>
</defs>
</svg>
