<svg width="512" height="512" viewBox="0 0 512 512" fill="none" xmlns="http://www.w3.org/2000/svg">
<path d="M144 320V480C144 488.8 136.8 496 128 496H32C23.2 496 16 488.8 16 480V320C16 311.2 23.2 304 32 304H128C136.8 304 144 311.2 144 320Z" fill="#E6E9ED"/>
<path d="M440 384C470.96 384 496 409.04 496 440C496 470.96 470.96 496 440 496C411.76 496 388.48 475.2 384.64 448C384.16 445.44 384 442.72 384 440C384 431.36 385.92 423.28 389.44 416C398.4 397.04 417.6 384 440 384Z" fill="#21FFD6"/>
<path d="M384 440C384 442.72 384.16 445.44 384.64 448H384.56H176V416H256H389.36H389.44C385.92 423.28 384 431.36 384 440Z" fill="#FFEAA7"/>
<path d="M256 16C366.48 16 456 105.52 456 216C456 326.48 366.48 416 256 416H176V368H256C339.92 368 408 299.92 408 216C408 132.08 339.92 64 256 64C172.08 64 104 132.08 104 216H120L80 264L40 216H56C56 105.52 145.52 16 256 16Z" fill="#FFEAA7"/>
<path d="M264 168C290.48 168 312 189.52 312 216C312 242.48 290.48 264 264 264C237.52 264 216 242.48 216 216C216 189.52 237.52 168 264 168ZM280 216C280 207.2 272.8 200 264 200C255.2 200 248 207.2 248 216C248 224.8 255.2 232 264 232C272.8 232 280 224.8 280 216Z" fill="#FCD770"/>
<path d="M360 192V240L338.32 245.44C338 246.24 337.76 247.04 337.36 247.84L348.88 266.88L314.88 300.88L295.84 289.36C295.04 289.76 294.24 290 293.44 290.32L288 312H240L234.56 290.32C233.76 290 232.96 289.76 232.16 289.36L213.12 300.88L179.12 266.88L190.64 247.84C190.24 247.04 190 246.24 189.68 245.44L168 240V192L189.68 186.56C190 185.76 190.24 184.96 190.64 184.16L179.12 165.12L213.12 131.12L232.16 142.64C232.96 142.24 233.76 142 234.56 141.68L240 120H288L293.44 141.68C294.24 142 295.04 142.24 295.84 142.64L314.88 131.12L348.88 165.12L337.36 184.16C337.76 184.96 338 185.76 338.32 186.56L360 192ZM312 216C312 189.52 290.48 168 264 168C237.52 168 216 189.52 216 216C216 242.48 237.52 264 264 264C290.48 264 312 242.48 312 216Z" fill="#FFC708"/>
<path d="M440 376C416.376 376 395.744 388.904 384.656 408H335.944C411.064 376.608 464 302.376 464 216C464 101.312 370.688 8 256 8C143.992 8 52.3759 97 48.1519 208H22.9199L79.9999 276.496L137.08 208H112.216C116.384 132.304 179.28 72 256 72C335.4 72 400 136.6 400 216C400 295.4 335.4 360 256 360H168V456H378.104C385.24 483.56 410.24 504 440 504C475.288 504 504 475.288 504 440C504 404.712 475.288 376 440 376V376ZM256 376C344.224 376 416 304.224 416 216C416 127.776 344.224 56 256 56C167.776 56 95.9999 127.776 95.9999 216V224H102.92L79.9999 251.504L57.0799 224H63.9999V216C63.9999 110.136 150.136 24 256 24C361.864 24 448 110.136 448 216C448 321.864 361.864 408 256 408H184V376H256ZM184 440V424H378.104C376.776 429.128 376 434.464 376 440H184ZM440 488C413.528 488 392 466.472 392 440C392 413.528 413.528 392 440 392C466.472 392 488 413.528 488 440C488 466.472 466.472 488 440 488Z" fill="black"/>
<path d="M466.344 418.344L432 452.688L421.656 442.344L410.344 453.656L432 475.312L477.656 429.656L466.344 418.344Z" fill="black"/>
<path d="M128 296H32C18.768 296 8 306.768 8 320V480C8 493.232 18.768 504 32 504H128C141.232 504 152 493.232 152 480V320C152 306.768 141.232 296 128 296ZM136 480C136 484.416 132.408 488 128 488H32C27.592 488 24 484.416 24 480V320C24 315.584 27.592 312 32 312H128C132.408 312 136 315.584 136 320V480Z" fill="black"/>
<path d="M264 272C294.88 272 320 246.88 320 216C320 185.12 294.88 160 264 160C233.12 160 208 185.12 208 216C208 246.88 233.12 272 264 272ZM264 176C286.056 176 304 193.944 304 216C304 238.056 286.056 256 264 256C241.944 256 224 238.056 224 216C224 193.944 241.944 176 264 176Z" fill="black"/>
<path d="M160 246.248L179.328 251.072L169.08 268.152L211.856 310.92L228.928 300.672L233.752 320H294.248L299.072 300.672L316.144 310.92L358.92 268.152L348.672 251.072L368 246.248V185.752L348.672 180.928L358.92 163.856L316.144 121.08L299.072 131.328L294.248 112H233.752L228.928 131.328L211.856 121.08L169.08 163.856L179.328 180.928L160 185.752V246.248ZM176 198.248L195.568 193.36L199.584 183.584L189.216 166.32L214.32 141.216L231.584 151.584L241.36 147.568L246.248 128H281.752L286.64 147.568L296.416 151.584L313.68 141.216L338.784 166.32L328.416 183.584L332.432 193.36L352 198.248V233.752L336.408 237.648L332.136 239.296L328.408 248.4L338.776 265.68L313.672 290.792L296.408 280.424L286.648 284.392L281.752 304H246.248L242.352 288.408L240.728 284.128L231.592 280.416L214.328 290.784L189.224 265.672L199.592 248.392L195.568 238.632L176 233.752V198.248Z" fill="black"/>
<path d="M264 240C277.232 240 288 229.232 288 216C288 202.768 277.232 192 264 192C250.768 192 240 202.768 240 216C240 229.232 250.768 240 264 240ZM264 208C268.408 208 272 211.592 272 216C272 220.408 268.408 224 264 224C259.592 224 256 220.408 256 216C256 211.592 259.592 208 264 208Z" fill="black"/>
<path d="M40 328H120V344H40V328Z" fill="black"/>
<path d="M40 360H120V376H40V360Z" fill="black"/>
<path d="M40 392H120V408H40V392Z" fill="black"/>
<path d="M40 424H120V440H40V424Z" fill="black"/>
<path d="M104 456H120V472H104V456Z" fill="black"/>
<path d="M72 456H88V472H72V456Z" fill="black"/>
<path d="M40 456H56V472H40V456Z" fill="black"/>
</svg>
